<mxfile host="65bd71144e">
    <diagram id="unMX-nytXJTSxS_D71qN" name="Page-1">
        <mxGraphModel dx="1085" dy="824" grid="1" gridSize="10" guides="1" tooltips="1" connect="1" arrows="1" fold="1" page="1" pageScale="1" pageWidth="850" pageHeight="1100" math="0" shadow="0">
            <root>
                <mxCell id="0"/>
                <mxCell id="1" parent="0"/>
                <mxCell id="2" value="Blue Cash Every Day&lt;br&gt;****120006" style="whiteSpace=wrap;html=1;" parent="1" vertex="1">
                    <mxGeometry x="30" y="30" width="120" height="60" as="geometry"/>
                </mxCell>
                <mxCell id="3" value="Search_____" style="whiteSpace=wrap;html=1;" parent="1" vertex="1">
                    <mxGeometry x="280" y="30" width="120" height="60" as="geometry"/>
                </mxCell>
                <mxCell id="4" value="" style="whiteSpace=wrap;html=1;" parent="1" vertex="1">
                    <mxGeometry x="30" y="110" width="370" height="810" as="geometry"/>
                </mxCell>
                <mxCell id="5" value="Card Image" style="whiteSpace=wrap;html=1;" parent="1" vertex="1">
                    <mxGeometry x="110" y="150" width="210" height="140" as="geometry"/>
                </mxCell>
                <mxCell id="6" value="Total balance&lt;br&gt;$500.21&lt;br&gt;&lt;br&gt;Payment not required at this time&lt;br&gt;&lt;br&gt;Remaining statement balance $0.00&lt;br&gt;&lt;br&gt;Credit Limit $21,500" style="whiteSpace=wrap;html=1;align=left;verticalAlign=top;" parent="1" vertex="1">
                    <mxGeometry x="60" y="310" width="210" height="140" as="geometry"/>
                </mxCell>
                <mxCell id="7" value="More Details&lt;br&gt;Statement and Activity" style="text;strokeColor=none;align=left;fillColor=none;html=1;verticalAlign=top;whiteSpace=wrap;rounded=0;fontColor=#3333FF;" parent="1" vertex="1">
                    <mxGeometry x="60" y="470" width="140" height="50" as="geometry"/>
                </mxCell>
                <mxCell id="8" value="$ Make Payment" style="whiteSpace=wrap;html=1;labelBackgroundColor=none;fillStyle=solid;fillColor=#007FFF;fontStyle=1" parent="1" vertex="1">
                    <mxGeometry x="110" y="520" width="210" height="30" as="geometry"/>
                </mxCell>
                <mxCell id="9" value="2-Jan&lt;br&gt;apple $2.99&lt;br&gt;amazon web services&lt;br&gt;walmart&lt;br&gt;&lt;br&gt;1-Jan&lt;br&gt;patreon&lt;br&gt;publix&lt;br&gt;&lt;br&gt;31-Dec&lt;br&gt;amazon&lt;br&gt;toll&lt;br&gt;ticket to movie&lt;br&gt;charity" style="whiteSpace=wrap;html=1;align=left;verticalAlign=top;" parent="1" vertex="1">
                    <mxGeometry x="60" y="570" width="290" height="220" as="geometry"/>
                </mxCell>
                <mxCell id="10" value="Home&amp;nbsp; &amp;nbsp;Membership&amp;nbsp; &amp;nbsp; Offers&amp;nbsp; &amp;nbsp;Account" style="text;strokeColor=none;align=center;fillColor=none;html=1;verticalAlign=top;whiteSpace=wrap;rounded=0;fontColor=#3333FF;fontSize=17;" parent="1" vertex="1">
                    <mxGeometry x="45" y="860" width="335" height="50" as="geometry"/>
                </mxCell>
                <mxCell id="11" value="&lt;font style=&quot;color: rgb(0, 0, 0);&quot;&gt;Application of Credit Card in mobile&amp;nbsp;&lt;br&gt;features:&lt;br&gt;&lt;ul style=&quot;&quot;&gt;&lt;li style=&quot;&quot;&gt;&lt;font&gt;a user can register for an account&lt;/font&gt;&lt;/li&gt;&lt;li style=&quot;&quot;&gt;&lt;font&gt;a user can register for a card&lt;/font&gt;&lt;/li&gt;&lt;li style=&quot;&quot;&gt;&lt;font&gt;a user can see their home page&lt;/font&gt;&lt;/li&gt;&lt;li style=&quot;&quot;&gt;&lt;font&gt;choose their active card, shown 1 at a time&lt;/font&gt;&lt;/li&gt;&lt;li style=&quot;&quot;&gt;&lt;font&gt;search for transactions&lt;/font&gt;&lt;/li&gt;&lt;li style=&quot;&quot;&gt;&lt;font&gt;see info of&lt;/font&gt;&lt;/li&gt;&lt;ul style=&quot;&quot;&gt;&lt;li&gt;&lt;font&gt;total balance&lt;/font&gt;&lt;/li&gt;&lt;li&gt;&lt;font&gt;due payment&lt;/font&gt;&lt;/li&gt;&lt;li&gt;&lt;font&gt;credit limit&lt;/font&gt;&lt;/li&gt;&lt;/ul&gt;&lt;li style=&quot;&quot;&gt;see more details&lt;/li&gt;&lt;ul style=&quot;&quot;&gt;&lt;li&gt;statement balance&lt;/li&gt;&lt;li&gt;recent payment and credits&lt;/li&gt;&lt;li&gt;recent charges&lt;/li&gt;&lt;li&gt;total balance&lt;/li&gt;&lt;li&gt;available credit&lt;/li&gt;&lt;li&gt;credit limit&lt;/li&gt;&lt;/ul&gt;&lt;li style=&quot;&quot;&gt;statement and activities&lt;/li&gt;&lt;ul style=&quot;&quot;&gt;&lt;li&gt;total balance, available credit&lt;/li&gt;&lt;li&gt;overview of their current month balance&lt;/li&gt;&lt;li&gt;3 last month overview of balance&lt;/li&gt;&lt;li&gt;detailed statement of each month (limit to 12 most recent months)&lt;/li&gt;&lt;li&gt;pdf download of statements&lt;/li&gt;&lt;/ul&gt;&lt;li style=&quot;&quot;&gt;account&lt;/li&gt;&lt;ul style=&quot;&quot;&gt;&lt;li&gt;user can see their profile&lt;/li&gt;&lt;li&gt;user can change profile items (that can be changed)&lt;/li&gt;&lt;li&gt;user can apply to more cards&lt;/li&gt;&lt;li&gt;user can close a card&lt;/li&gt;&lt;li&gt;user can close and account after all requirements are met&lt;/li&gt;&lt;/ul&gt;&lt;li style=&quot;&quot;&gt;memberships&lt;/li&gt;&lt;li style=&quot;&quot;&gt;others&lt;/li&gt;&lt;/ul&gt;&lt;/font&gt;" style="text;strokeColor=none;align=left;fillColor=none;html=1;verticalAlign=top;whiteSpace=wrap;rounded=0;labelBackgroundColor=none;fillStyle=solid;fontSize=17;fontColor=#3333FF;" parent="1" vertex="1">
                    <mxGeometry x="430" y="20" width="440" height="930" as="geometry"/>
                </mxCell>
                <mxCell id="46" value="&lt;span style=&quot;background-color: rgb(0, 0, 0);&quot;&gt;&lt;font style=&quot;color: rgb(255, 255, 255);&quot;&gt;Account&lt;br&gt;&lt;br&gt;id: string&lt;br&gt;name: string&lt;br&gt;member_since: date&lt;br&gt;email_addresses: string[]&lt;br&gt;addresses: string[]&lt;br&gt;phone_numbers: string[]&lt;br&gt;income: number&lt;br&gt;last_updated_income:date&lt;br&gt;cards: Card[]&lt;br&gt;cards: {card, transactions}[]&lt;br&gt;username:string&lt;br&gt;password:string&lt;/font&gt;&lt;/span&gt;" style="text;strokeColor=default;align=left;fillColor=none;html=1;verticalAlign=top;whiteSpace=wrap;rounded=0;labelBackgroundColor=none;fillStyle=solid;fontSize=17;fontColor=#FFFFFF;" parent="1" vertex="1">
                    <mxGeometry x="920" y="40" width="220" height="290" as="geometry"/>
                </mxCell>
                <mxCell id="47" value="&lt;span style=&quot;background-color: rgb(0, 0, 0);&quot;&gt;&lt;font style=&quot;color: rgb(255, 255, 255);&quot;&gt;Card&lt;br&gt;&lt;br&gt;id: string&lt;br&gt;name: string&lt;br&gt;image: string&lt;br&gt;features: Feature[]&lt;br&gt;rules: Rule[]&lt;/font&gt;&lt;/span&gt;" style="text;strokeColor=default;align=left;fillColor=none;html=1;verticalAlign=top;whiteSpace=wrap;rounded=0;labelBackgroundColor=none;fillStyle=solid;fontSize=17;fontColor=#FFFFFF;" parent="1" vertex="1">
                    <mxGeometry x="1160" y="40" width="220" height="290" as="geometry"/>
                </mxCell>
                <mxCell id="48" value="&lt;span style=&quot;background-color: rgb(0, 0, 0);&quot;&gt;&lt;font style=&quot;color: rgb(255, 255, 255);&quot;&gt;Transaction&lt;br&gt;&lt;br&gt;id: string&lt;br&gt;name: string&lt;br&gt;card_id: string&lt;br&gt;account_id: string&lt;br&gt;type: string&lt;br&gt;amount: number&lt;br&gt;date: date&lt;/font&gt;&lt;/span&gt;" style="text;strokeColor=default;align=left;fillColor=none;html=1;verticalAlign=top;whiteSpace=wrap;rounded=0;labelBackgroundColor=none;fillStyle=solid;fontSize=17;fontColor=#FFFFFF;" parent="1" vertex="1">
                    <mxGeometry x="920" y="360" width="220" height="290" as="geometry"/>
                </mxCell>
                <mxCell id="49" value="&lt;span style=&quot;background-color: rgb(0, 0, 0);&quot;&gt;&lt;font style=&quot;color: rgb(255, 255, 255);&quot;&gt;Statement&lt;br&gt;&lt;br&gt;id: string&lt;br&gt;account_id: string&lt;br&gt;card_id: string&lt;br&gt;account_id: string&lt;br&gt;mont_year: striing&lt;br&gt;transactions: Transaction[]&lt;/font&gt;&lt;/span&gt;" style="text;strokeColor=default;align=left;fillColor=none;html=1;verticalAlign=top;whiteSpace=wrap;rounded=0;labelBackgroundColor=none;fillStyle=solid;fontSize=17;fontColor=#FFFFFF;" parent="1" vertex="1">
                    <mxGeometry x="1160" y="360" width="220" height="290" as="geometry"/>
                </mxCell>
                <mxCell id="50" value="Component List, Sub component, and dependencies&lt;br&gt;&lt;ul&gt;&lt;li&gt;app(home page)&lt;/li&gt;&lt;ul&gt;&lt;li&gt;nav-main&lt;/li&gt;&lt;li&gt;card-active&lt;/li&gt;&lt;ul&gt;&lt;li&gt;account created, accoutn login, card applied, active cards&lt;/li&gt;&lt;/ul&gt;&lt;li&gt;search&lt;/li&gt;&lt;li&gt;card-image&lt;/li&gt;&lt;ul&gt;&lt;li&gt;account created, accoutn login, card applied, active cards&lt;/li&gt;&lt;/ul&gt;&lt;li&gt;card-balance-overview&lt;/li&gt;&lt;ul&gt;&lt;li&gt;account created, accoutn login, card applied, active cards, transactions, statements&lt;/li&gt;&lt;/ul&gt;&lt;li&gt;card-recent-activities&lt;/li&gt;&lt;ul&gt;&lt;li&gt;account created, accoutn login, card applied, active cards, transactions&lt;/li&gt;&lt;/ul&gt;&lt;/ul&gt;&lt;li&gt;more-details&lt;/li&gt;&lt;li&gt;statement-and-activities&lt;/li&gt;&lt;li&gt;make-payment&lt;/li&gt;&lt;li&gt;user-registration&lt;/li&gt;&lt;li&gt;card-application&lt;/li&gt;&lt;/ul&gt;&lt;div&gt;&lt;br&gt;&lt;/div&gt;&lt;div&gt;Let us list the feature list correctly and component needed for the features, so revise this if neccessary&lt;/div&gt;" style="text;strokeColor=default;align=left;fillColor=none;html=1;verticalAlign=top;whiteSpace=wrap;rounded=0;labelBackgroundColor=none;fillStyle=solid;fontSize=17;fontColor=#FFFFFF;" parent="1" vertex="1">
                    <mxGeometry x="40" y="990" width="900" height="690" as="geometry"/>
                </mxCell>
                <mxCell id="51" value="What is needed for dependencies&lt;br&gt;&lt;ul&gt;&lt;li&gt;user registration&lt;/li&gt;&lt;li&gt;account created&lt;/li&gt;&lt;ul&gt;&lt;li&gt;user registration&lt;/li&gt;&lt;/ul&gt;&lt;li&gt;account login&lt;/li&gt;&lt;ul&gt;&lt;li&gt;user registration&lt;/li&gt;&lt;/ul&gt;&lt;li&gt;card applied&lt;/li&gt;&lt;ul&gt;&lt;li&gt;user registration&lt;/li&gt;&lt;/ul&gt;&lt;li&gt;active cards&lt;/li&gt;&lt;ul&gt;&lt;li&gt;user registration&lt;/li&gt;&lt;/ul&gt;&lt;li&gt;transactions&lt;/li&gt;&lt;li&gt;statements&lt;/li&gt;&lt;/ul&gt;" style="text;strokeColor=default;align=left;fillColor=none;html=1;verticalAlign=top;whiteSpace=wrap;rounded=0;labelBackgroundColor=none;fillStyle=solid;fontSize=17;fontColor=#FFFFFF;" parent="1" vertex="1">
                    <mxGeometry x="950" y="990" width="670" height="690" as="geometry"/>
                </mxCell>
            </root>
        </mxGraphModel>
    </diagram>
</mxfile>